<svg width="32px" height="32px" viewBox="0 0 20.48 20.48" xmlns="http://www.w3.org/2000/svg" xmlns:xlink="http://www.w3.org/1999/xlink" aria-hidden="true" role="img" class="iconify iconify--fxemoji" preserveAspectRatio="xMidYMid meet"><path fill="#B0E9FF" d="M17.661 10.724c-0.22 0 -0.434 0.027 -0.639 0.078a2.767 2.767 0 0 0 0.071 -0.62c0 -1.525 -1.236 -2.761 -2.761 -2.761a2.748 2.748 0 0 0 -1.559 0.483c-0.518 -1.996 -2.331 -3.469 -4.489 -3.469 -2.561 0 -4.638 2.076 -4.638 4.638 -1.926 0 -3.487 1.561 -3.487 3.487 0 1.926 1.561 3.487 3.487 3.487h14.016c1.47 0 2.661 -1.191 2.661 -2.661 0 -1.469 -1.191 -2.661 -2.661 -2.661z"/></svg>